<svg width="114" height="19" viewBox="0 0 114 19" fill="none" xmlns="http://www.w3.org/2000/svg">
<path d="M13.6562 0.703125C13.474 1.11979 13.3112 1.48438 13.168 1.79688C13.0247 2.10938 12.901 2.3763 12.7969 2.59766C12.6797 2.84505 12.582 3.06641 12.5039 3.26172C12.4388 3.40495 12.3542 3.60026 12.25 3.84766C12.1458 4.06901 12.0156 4.36198 11.8594 4.72656C11.7161 5.07812 11.5273 5.53385 11.293 6.09375C11.1758 5.61198 11.0326 5.1888 10.8633 4.82422C10.694 4.45964 10.5117 4.14062 10.3164 3.86719C10.1211 3.59375 9.91276 3.3724 9.69141 3.20312C9.48307 3.02083 9.27474 2.87109 9.06641 2.75391C8.58464 2.49349 8.07682 2.35026 7.54297 2.32422C6.83984 2.36328 6.28646 2.48047 5.88281 2.67578C5.49219 2.85807 5.20573 3.07292 5.02344 3.32031C4.84115 3.55469 4.74349 3.80208 4.73047 4.0625C4.71745 4.3099 4.75 4.51823 4.82812 4.6875C4.89323 4.84375 5.12109 5.02604 5.51172 5.23438C5.91536 5.44271 6.39714 5.68359 6.95703 5.95703C7.52995 6.21745 8.14193 6.51693 8.79297 6.85547C9.44401 7.18099 10.043 7.54557 10.5898 7.94922C11.1497 8.33984 11.6185 8.76953 11.9961 9.23828C12.3867 9.69401 12.6016 10.1823 12.6406 10.7031C12.6797 11.3672 12.6732 11.9661 12.6211 12.5C12.569 13.0339 12.3867 13.4896 12.0742 13.8672C11.7617 14.2448 11.2734 14.5443 10.6094 14.7656C9.95833 14.987 9.05339 15.1237 7.89453 15.1758C6.69661 15.2279 5.71354 15.1628 4.94531 14.9805C4.17708 14.7982 3.55208 14.5508 3.07031 14.2383C2.60156 13.9258 2.25 13.5807 2.01562 13.2031C1.79427 12.8255 1.63151 12.4674 1.52734 12.1289C1.42318 11.7773 1.35156 11.4779 1.3125 11.2305C1.27344 10.9701 1.20833 10.8138 1.11719 10.7617C1.01302 10.6966 0.908854 10.638 0.804688 10.5859C0.713542 10.5339 0.615885 10.4883 0.511719 10.4492C0.407552 10.3971 0.303385 10.3516 0.199219 10.3125L5.88281 9.39453C5.55729 9.65495 5.30339 9.89583 5.12109 10.1172C4.95182 10.3385 4.82161 10.5339 4.73047 10.7031C4.6263 10.8984 4.55469 11.0807 4.51562 11.25C4.48958 11.4323 4.54818 11.6602 4.69141 11.9336C4.83464 12.207 5.02995 12.474 5.27734 12.7344C5.53776 12.9818 5.83724 13.1901 6.17578 13.3594C6.51432 13.5286 6.86589 13.6003 7.23047 13.5742C7.6862 13.5352 8.05729 13.4245 8.34375 13.2422C8.63021 13.0469 8.84505 12.806 8.98828 12.5195C9.14453 12.2331 9.23568 11.9206 9.26172 11.582C9.28776 11.2435 9.25521 10.9115 9.16406 10.5859C9.08594 10.2474 8.95573 9.9349 8.77344 9.64844C8.59115 9.34896 8.3763 9.10156 8.12891 8.90625C7.90755 8.75 7.5625 8.60026 7.09375 8.45703C6.63802 8.3138 6.1237 8.15755 5.55078 7.98828C4.99089 7.81901 4.41146 7.6237 3.8125 7.40234C3.22656 7.18099 2.69271 6.90755 2.21094 6.58203C1.74219 6.25651 1.36458 5.8724 1.07812 5.42969C0.804688 4.98698 0.700521 4.45312 0.765625 3.82812C0.817708 3.29427 0.986979 2.85156 1.27344 2.5C1.57292 2.13542 1.94401 1.84896 2.38672 1.64062C2.84245 1.41927 3.34375 1.25651 3.89062 1.15234C4.45052 1.04818 5.01693 0.989583 5.58984 0.976562C6.17578 0.950521 6.7487 0.957031 7.30859 0.996094C7.88151 1.03516 8.39583 1.08073 8.85156 1.13281C9.30729 1.1849 9.69141 1.23698 10.0039 1.28906C10.3294 1.32812 10.5312 1.35417 10.6094 1.36719C10.9479 1.39323 11.2865 1.38672 11.625 1.34766C11.9245 1.32161 12.25 1.26302 12.6016 1.17188C12.9661 1.06771 13.3177 0.911458 13.6562 0.703125ZM13.6172 2.69531C14.0078 2.73438 14.3333 2.76693 14.5938 2.79297C14.8672 2.81901 15.0885 2.83854 15.2578 2.85156C15.4531 2.86458 15.6094 2.87109 15.7266 2.87109C15.8438 2.88411 16 2.88411 16.1953 2.87109C16.3646 2.85807 16.5859 2.84505 16.8594 2.83203C17.1328 2.80599 17.4779 2.76693 17.8945 2.71484C17.8034 2.84505 17.7318 2.96224 17.6797 3.06641C17.6276 3.15755 17.582 3.24219 17.543 3.32031L17.4258 3.55469C17.3997 3.63281 17.3737 3.71094 17.3477 3.78906C17.3216 3.85417 17.2956 3.93229 17.2695 4.02344C17.2565 4.11458 17.2435 4.21224 17.2305 4.31641H20.2383L19.9648 5.89844L17.2109 5.74219C17.1458 6.40625 17.1003 6.92057 17.0742 7.28516C17.0482 7.64974 17.0221 7.91667 16.9961 8.08594L16.957 8.4375C16.918 8.93229 16.8789 9.47266 16.8398 10.0586C16.8008 10.6315 16.7878 11.1654 16.8008 11.6602C16.8138 12.1549 16.8594 12.5716 16.9375 12.9102C17.0156 13.2357 17.1523 13.3984 17.3477 13.3984C17.543 13.3984 17.7253 13.3464 17.8945 13.2422C18.0638 13.138 18.207 13.0143 18.3242 12.8711C18.4544 12.7279 18.5521 12.5846 18.6172 12.4414C18.6823 12.2852 18.7148 12.168 18.7148 12.0898C18.7148 12.0117 18.6953 11.9206 18.6562 11.8164C18.5911 11.6211 18.474 11.3737 18.3047 11.0742C18.6823 11.1654 19.0143 11.2565 19.3008 11.3477C19.444 11.3997 19.5742 11.4518 19.6914 11.5039C19.8216 11.556 19.9714 11.6146 20.1406 11.6797C20.2839 11.7448 20.4661 11.8229 20.6875 11.9141C20.9089 12.0052 21.1693 12.1159 21.4688 12.2461C21.1823 12.2982 20.974 12.3828 20.8438 12.5C20.7656 12.5521 20.707 12.6107 20.668 12.6758C20.5768 12.819 20.4727 13.0143 20.3555 13.2617C20.2383 13.4961 20.0625 13.7305 19.8281 13.9648C19.5938 14.1992 19.2747 14.4076 18.8711 14.5898C18.4805 14.7721 17.9531 14.8763 17.2891 14.9023C16.599 14.9284 16.0716 14.8112 15.707 14.5508C15.3555 14.2904 15.0951 13.9909 14.9258 13.6523C14.7695 13.3008 14.6784 12.9557 14.6523 12.6172C14.6263 12.2786 14.6068 12.0508 14.5938 11.9336C14.5807 11.8164 14.5807 11.5234 14.5938 11.0547C14.6068 10.5859 14.6263 10.0716 14.6523 9.51172C14.6784 8.9388 14.7044 8.39193 14.7305 7.87109C14.7565 7.33724 14.7695 6.94661 14.7695 6.69922C14.7695 6.56901 14.776 6.43229 14.7891 6.28906C14.7891 6.17188 14.7891 6.04818 14.7891 5.91797C14.8021 5.77474 14.8086 5.63802 14.8086 5.50781L11.9766 5.48828L11.8594 4.375L14.7109 4.45312C14.6849 4.3099 14.6523 4.17969 14.6133 4.0625C14.5872 3.93229 14.5612 3.82812 14.5352 3.75C14.4961 3.65885 14.457 3.58073 14.418 3.51562C14.3659 3.45052 14.3073 3.37891 14.2422 3.30078C14.1771 3.23568 14.0924 3.15104 13.9883 3.04688C13.8841 2.94271 13.7604 2.82552 13.6172 2.69531ZM22.1328 7.08984C22.1979 7.01172 22.237 6.86849 22.25 6.66016C22.276 6.4388 22.3281 6.19141 22.4062 5.91797C22.4974 5.64453 22.6471 5.35807 22.8555 5.05859C23.0638 4.75911 23.4023 4.47917 23.8711 4.21875C24.3268 3.95833 24.7695 3.80208 25.1992 3.75C25.6289 3.69792 26.0391 3.71745 26.4297 3.80859C26.8203 3.89974 27.1849 4.04297 27.5234 4.23828C27.875 4.43359 28.194 4.64844 28.4805 4.88281C28.6758 5.03906 28.832 5.26693 28.9492 5.56641C29.0664 5.85286 29.1576 6.17839 29.2227 6.54297C29.2878 6.90755 29.3333 7.29167 29.3594 7.69531C29.3984 8.08594 29.4245 8.47005 29.4375 8.84766C29.4505 9.21224 29.457 9.55078 29.457 9.86328C29.4701 10.1628 29.4961 10.4102 29.5352 10.6055C29.5872 10.8919 29.6784 11.1393 29.8086 11.3477C29.9388 11.543 30.082 11.7122 30.2383 11.8555C30.3945 11.9857 30.5508 12.0898 30.707 12.168C30.8633 12.2461 31 12.3047 31.1172 12.3438C31.1953 12.3828 31.2669 12.4089 31.332 12.4219C31.4622 12.474 31.5534 12.474 31.6055 12.4219C31.5273 12.6042 31.4557 12.7604 31.3906 12.8906C31.3255 13.0208 31.2734 13.1315 31.2344 13.2227C31.1823 13.3268 31.1367 13.4115 31.0977 13.4766C31.0586 13.5547 31.013 13.6263 30.9609 13.6914C30.9219 13.7565 30.8698 13.8281 30.8047 13.9062C30.7396 13.9844 30.6745 14.069 30.6094 14.1602C30.4401 14.0951 30.2773 14.0169 30.1211 13.9258C29.9779 13.8346 29.8477 13.75 29.7305 13.6719C29.5872 13.5807 29.457 13.4896 29.3398 13.3984C29.2227 13.3073 29.112 13.2031 29.0078 13.0859C28.9167 12.9818 28.819 12.8711 28.7148 12.7539C28.6237 12.6367 28.5456 12.5065 28.4805 12.3633C28.4023 12.5326 28.2135 12.7734 27.9141 13.0859C27.6276 13.3984 27.25 13.6849 26.7812 13.9453C26.3125 14.1927 25.7656 14.3685 25.1406 14.4727C24.5286 14.5768 23.8516 14.5052 23.1094 14.2578C22.7839 14.1536 22.4779 14.0039 22.1914 13.8086C21.9049 13.6003 21.6576 13.3529 21.4492 13.0664C21.2539 12.7799 21.1107 12.4544 21.0195 12.0898C20.9414 11.7122 20.9479 11.2956 21.0391 10.8398C21.1302 10.3841 21.293 10 21.5273 9.6875C21.7617 9.375 22.0417 9.12109 22.3672 8.92578C22.6927 8.73047 23.0573 8.58073 23.4609 8.47656C23.8646 8.3724 24.2812 8.30078 24.7109 8.26172C25.0495 8.2487 25.388 8.26823 25.7266 8.32031C26.013 8.3724 26.3125 8.47005 26.625 8.61328C26.9375 8.74349 27.2044 8.94531 27.4258 9.21875C27.4128 8.52865 27.3867 7.98177 27.3477 7.57812C27.3216 7.16146 27.2956 6.84245 27.2695 6.62109C27.2174 6.36068 27.1719 6.17839 27.1328 6.07422C27.0677 5.98307 26.9961 5.87891 26.918 5.76172C26.8529 5.64453 26.7682 5.54036 26.6641 5.44922C26.5599 5.34505 26.4297 5.26042 26.2734 5.19531C26.1172 5.13021 25.9349 5.10417 25.7266 5.11719C25.5052 5.13021 25.3294 5.1888 25.1992 5.29297C25.069 5.39714 24.9648 5.52083 24.8867 5.66406C24.8216 5.79427 24.7826 5.9375 24.7695 6.09375C24.7565 6.25 24.763 6.38672 24.7891 6.50391C24.8151 6.58203 24.8542 6.66667 24.9062 6.75781C24.9583 6.83594 25.0299 6.92057 25.1211 7.01172C25.2122 7.10286 25.3359 7.18099 25.4922 7.24609C25.1927 7.28516 24.9258 7.31771 24.6914 7.34375C24.457 7.35677 24.2552 7.3763 24.0859 7.40234C23.8906 7.42839 23.7214 7.44792 23.5781 7.46094C23.4349 7.47396 23.2656 7.5 23.0703 7.53906C22.901 7.5651 22.6927 7.59766 22.4453 7.63672C22.1979 7.67578 21.9115 7.72786 21.5859 7.79297C21.6641 7.70182 21.7357 7.61719 21.8008 7.53906C21.8659 7.44792 21.9245 7.36979 21.9766 7.30469C22.0286 7.22656 22.0807 7.15495 22.1328 7.08984ZM25.0625 9.41406C24.8281 9.42708 24.5938 9.48568 24.3594 9.58984C24.125 9.68099 23.9167 9.81771 23.7344 10C23.5521 10.1693 23.3958 10.3711 23.2656 10.6055C23.1484 10.8268 23.0898 11.0742 23.0898 11.3477C23.0898 11.6211 23.1549 11.862 23.2852 12.0703C23.4284 12.2656 23.6107 12.4284 23.832 12.5586C24.0664 12.6888 24.3138 12.7669 24.5742 12.793C24.8477 12.819 25.1146 12.793 25.375 12.7148C25.6224 12.6237 25.8568 12.4805 26.0781 12.2852C26.2995 12.0768 26.4883 11.8555 26.6445 11.6211C26.8008 11.3737 26.9115 11.1328 26.9766 10.8984C27.0417 10.651 27.0482 10.4492 26.9961 10.293C26.8919 9.95443 26.6576 9.72005 26.293 9.58984C25.9284 9.44661 25.5182 9.38802 25.0625 9.41406ZM31.3125 5.74219C31.612 5.71615 31.8659 5.6901 32.0742 5.66406C32.2956 5.63802 32.4779 5.61198 32.6211 5.58594C32.7904 5.5599 32.9336 5.53385 33.0508 5.50781C33.168 5.49479 33.2982 5.46875 33.4414 5.42969C33.5716 5.40365 33.7148 5.37109 33.8711 5.33203C34.0404 5.27995 34.2227 5.22135 34.418 5.15625L34.3008 7.63672C34.5872 7.18099 34.9193 6.83594 35.2969 6.60156C35.6745 6.35417 36.0326 6.17188 36.3711 6.05469C36.7747 5.91146 37.1784 5.82682 37.582 5.80078C37.9987 5.8138 38.3828 5.87891 38.7344 5.99609C39.0339 6.10026 39.3333 6.26302 39.6328 6.48438C39.9453 6.70573 40.1862 7.03125 40.3555 7.46094C40.7982 7.00521 41.2344 6.65365 41.6641 6.40625C42.1068 6.14583 42.4974 5.95052 42.8359 5.82031C43.2396 5.67708 43.6172 5.59245 43.9688 5.56641C44.4375 5.55339 44.8672 5.63151 45.2578 5.80078C45.6615 5.97005 46.013 6.1849 46.3125 6.44531C46.612 6.69271 46.8529 6.95964 47.0352 7.24609C47.2174 7.51953 47.3216 7.76042 47.3477 7.96875C47.3867 8.25521 47.3672 8.6263 47.2891 9.08203C47.2109 9.52474 47.1198 9.98047 47.0156 10.4492C46.9115 10.9049 46.8138 11.3281 46.7227 11.7188C46.6445 12.0964 46.612 12.3633 46.625 12.5195C46.6641 12.6497 46.7552 12.806 46.8984 12.9883C47.0286 13.1445 47.2174 13.3398 47.4648 13.5742C47.7253 13.7956 48.0964 14.056 48.5781 14.3555C48.1615 14.3424 47.7904 14.3294 47.4648 14.3164C47.1523 14.3034 46.8854 14.2839 46.6641 14.2578C46.4036 14.2318 46.1758 14.2122 45.9805 14.1992C45.8242 14.1992 45.6354 14.1862 45.4141 14.1602C45.2318 14.1471 44.9909 14.1276 44.6914 14.1016C44.4049 14.0755 44.0729 14.0495 43.6953 14.0234C43.8385 13.9844 43.9557 13.9128 44.0469 13.8086C44.138 13.6914 44.2161 13.5807 44.2812 13.4766C44.3464 13.3464 44.3984 13.2031 44.4375 13.0469C44.4635 12.9167 44.4896 12.7083 44.5156 12.4219C44.5417 12.1354 44.5612 11.8099 44.5742 11.4453C44.6003 11.0807 44.6133 10.6966 44.6133 10.293C44.6263 9.88932 44.6263 9.50521 44.6133 9.14062C44.6003 8.77604 44.5742 8.44401 44.5352 8.14453C44.4961 7.84505 44.444 7.61719 44.3789 7.46094C44.3268 7.34375 44.2357 7.2526 44.1055 7.1875C43.9753 7.10938 43.8255 7.0638 43.6562 7.05078C43.487 7.02474 43.3177 7.03125 43.1484 7.07031C42.9792 7.09635 42.8294 7.14844 42.6992 7.22656C42.582 7.31771 42.4258 7.44141 42.2305 7.59766C42.0612 7.74089 41.8398 7.9362 41.5664 8.18359C41.293 8.43099 40.9479 8.74349 40.5312 9.12109C40.4922 9.94141 40.4596 10.6055 40.4336 11.1133C40.4206 11.6081 40.4076 11.9857 40.3945 12.2461C40.3815 12.5586 40.375 12.7734 40.375 12.8906C40.362 12.9948 40.3685 13.0924 40.3945 13.1836C40.4206 13.3789 40.4987 13.5612 40.6289 13.7305C40.4727 13.6914 40.3034 13.6654 40.1211 13.6523C39.9518 13.6393 39.7956 13.6263 39.6523 13.6133C39.4831 13.6003 39.3138 13.5938 39.1445 13.5938C39.0013 13.5938 38.8451 13.6003 38.6758 13.6133C38.5326 13.6263 38.3568 13.6458 38.1484 13.6719C37.9401 13.6849 37.7122 13.7044 37.4648 13.7305C37.569 13.6654 37.6536 13.5872 37.7188 13.4961C37.7839 13.4049 37.8359 13.3203 37.875 13.2422C37.9271 13.151 37.9661 13.0664 37.9922 12.9883C38.0052 12.9102 38.0312 12.7214 38.0703 12.4219C38.1094 12.1094 38.1354 11.7448 38.1484 11.3281C38.1615 10.9115 38.1615 10.4753 38.1484 10.0195C38.1354 9.55078 38.0898 9.1276 38.0117 8.75C37.9336 8.35938 37.8099 8.04036 37.6406 7.79297C37.4844 7.54557 37.276 7.4349 37.0156 7.46094C36.7031 7.48698 36.3841 7.5651 36.0586 7.69531C35.7852 7.79948 35.4922 7.95573 35.1797 8.16406C34.8672 8.3724 34.5742 8.65234 34.3008 9.00391C34.2487 9.98047 34.2161 10.7552 34.2031 11.3281C34.2031 11.901 34.2096 12.3372 34.2227 12.6367C34.2357 12.9883 34.2487 13.2292 34.2617 13.3594C34.2747 13.4505 34.3073 13.5417 34.3594 13.6328C34.3984 13.7109 34.444 13.8021 34.4961 13.9062C34.5612 14.0104 34.6328 14.1081 34.7109 14.1992L31.6055 14.043C31.7096 13.9909 31.8008 13.9258 31.8789 13.8477C31.957 13.7565 32.0221 13.6654 32.0742 13.5742C32.1263 13.4701 32.1784 13.3659 32.2305 13.2617C32.2695 13.1706 32.3021 12.9557 32.3281 12.6172C32.3672 12.2786 32.3997 11.8815 32.4258 11.4258C32.4518 10.957 32.4714 10.4688 32.4844 9.96094C32.5104 9.4401 32.5234 8.95833 32.5234 8.51562C32.5365 8.0599 32.543 7.67578 32.543 7.36328C32.543 7.03776 32.5365 6.84245 32.5234 6.77734C32.4844 6.64714 32.4128 6.51042 32.3086 6.36719C32.2174 6.26302 32.0938 6.15234 31.9375 6.03516C31.7812 5.90495 31.5729 5.80729 31.3125 5.74219ZM48.0898 5.89844C48.5065 5.83333 48.8451 5.78125 49.1055 5.74219C49.3789 5.6901 49.6003 5.65104 49.7695 5.625C49.9648 5.58594 50.1146 5.55339 50.2188 5.52734C50.3229 5.5013 50.4727 5.46224 50.668 5.41016C50.8372 5.35807 51.0586 5.29948 51.332 5.23438C51.6055 5.15625 51.9505 5.05208 52.3672 4.92188C52.263 5.05208 52.1784 5.16927 52.1133 5.27344C52.0612 5.36458 52.0091 5.44271 51.957 5.50781C51.9049 5.58594 51.8594 5.65755 51.8203 5.72266C51.7812 5.78776 51.7422 5.88542 51.7031 6.01562C51.6771 6.11979 51.6445 6.26953 51.6055 6.46484C51.5664 6.64714 51.5339 6.88802 51.5078 7.1875C52.2109 6.74479 52.8555 6.41276 53.4414 6.19141C54.0404 5.97005 54.5612 5.8138 55.0039 5.72266C55.5247 5.61849 55.9935 5.57943 56.4102 5.60547C56.931 5.64453 57.4128 5.76172 57.8555 5.95703C58.3112 6.13932 58.7214 6.36068 59.0859 6.62109C59.4505 6.88151 59.7695 7.16797 60.043 7.48047C60.3164 7.79297 60.5312 8.10547 60.6875 8.41797C60.7917 8.6263 60.8568 8.92578 60.8828 9.31641C60.9219 9.70703 60.8828 10.1237 60.7656 10.5664C60.6484 11.0091 60.4401 11.4453 60.1406 11.875C59.8542 12.2917 59.444 12.6237 58.9102 12.8711C57.9857 13.2878 57.0677 13.5221 56.1562 13.5742C55.7656 13.6003 55.362 13.5872 54.9453 13.5352C54.5417 13.4831 54.1315 13.3724 53.7148 13.2031C53.3112 13.0339 52.9206 12.793 52.543 12.4805C52.1654 12.1549 51.8203 11.7383 51.5078 11.2305C51.4036 11.8945 51.3255 12.474 51.2734 12.9688C51.2344 13.4505 51.2083 13.8542 51.1953 14.1797C51.1823 14.5573 51.1823 14.8763 51.1953 15.1367C51.2214 15.3971 51.2734 15.6771 51.3516 15.9766C51.4167 16.237 51.5078 16.5365 51.625 16.875C51.7552 17.2266 51.918 17.5911 52.1133 17.9688C52.0352 17.9427 51.9245 17.9232 51.7812 17.9102C51.651 17.9102 51.5143 17.9232 51.3711 17.9492C51.2148 17.9753 51.0391 18.0013 50.8438 18.0273C50.6615 18.0664 50.4596 18.112 50.2383 18.1641C50.056 18.2031 49.8411 18.2487 49.5938 18.3008C49.3594 18.3659 49.1185 18.4375 48.8711 18.5156C49.0143 18.3464 49.125 18.151 49.2031 17.9297C49.2943 17.7214 49.3659 17.526 49.418 17.3438C49.4701 17.1224 49.5156 16.901 49.5547 16.6797C49.5677 16.4844 49.5872 16.1133 49.6133 15.5664C49.6523 15.0326 49.6849 14.4141 49.7109 13.7109C49.737 12.9948 49.7565 12.2461 49.7695 11.4648C49.7956 10.6836 49.8086 9.96094 49.8086 9.29688C49.8216 8.61979 49.8216 8.04688 49.8086 7.57812C49.7956 7.10938 49.7695 6.83594 49.7305 6.75781C49.6784 6.66667 49.5807 6.56901 49.4375 6.46484C49.3203 6.3737 49.151 6.28255 48.9297 6.19141C48.7214 6.10026 48.4414 6.0026 48.0898 5.89844ZM52.7383 9.45312C52.6471 9.7526 52.6276 10.0456 52.6797 10.332C52.7318 10.6185 52.862 10.8854 53.0703 11.1328C53.2917 11.3802 53.5977 11.6016 53.9883 11.7969C54.3919 11.9792 54.8932 12.1159 55.4922 12.207C56.0911 12.2982 56.5469 12.2852 56.8594 12.168C57.1719 12.0508 57.3997 11.8685 57.543 11.6211C57.6992 11.3607 57.8034 11.0612 57.8555 10.7227C57.9076 10.3711 57.9727 10.0065 58.0508 9.62891C58.1289 9.26432 58.1159 8.89323 58.0117 8.51562C57.9076 8.125 57.7578 7.77344 57.5625 7.46094C57.3802 7.14844 57.1719 6.89453 56.9375 6.69922C56.7161 6.49089 56.5208 6.38672 56.3516 6.38672C55.9479 6.38672 55.5508 6.49089 55.1602 6.69922C54.7695 6.90755 54.4115 7.16797 54.0859 7.48047C53.7604 7.79297 53.474 8.13151 53.2266 8.49609C52.9922 8.84766 52.8294 9.16667 52.7383 9.45312ZM67.3086 0.566406C67.7643 0.566406 68.1745 0.644531 68.5391 0.800781C68.9167 0.94401 69.2617 1.10677 69.5742 1.28906C69.8997 1.47135 70.2057 1.64062 70.4922 1.79688C70.7786 1.9401 71.0716 2.01172 71.3711 2.01172C71.6055 1.9987 71.8724 1.96615 72.1719 1.91406C72.4323 1.86198 72.7318 1.78385 73.0703 1.67969C73.4219 1.5625 73.8125 1.39323 74.2422 1.17188C73.8125 1.58854 73.4609 1.9401 73.1875 2.22656C72.9271 2.5 72.7253 2.72786 72.582 2.91016C72.4128 3.11849 72.2891 3.28125 72.2109 3.39844C72.1328 3.54167 72.0156 3.75651 71.8594 4.04297C71.7161 4.30339 71.5208 4.65495 71.2734 5.09766C71.026 5.52734 70.7135 6.09375 70.3359 6.79688C70.3359 5.89844 70.2448 5.20182 70.0625 4.70703C69.8932 4.21224 69.7044 3.83464 69.4961 3.57422C69.2487 3.27474 68.9688 3.08594 68.6562 3.00781C68.3698 2.96875 68.0833 3.02083 67.7969 3.16406C67.5104 3.29427 67.224 3.48958 66.9375 3.75C66.6641 4.01042 66.3971 4.32292 66.1367 4.6875C65.8893 5.03906 65.6615 5.41016 65.4531 5.80078C65.2578 6.19141 65.0951 6.58854 64.9648 6.99219C64.8346 7.38281 64.75 7.7474 64.7109 8.08594C64.6719 8.38542 64.6654 8.73698 64.6914 9.14062C64.7174 9.53125 64.776 9.9349 64.8672 10.3516C64.9583 10.7552 65.0755 11.1523 65.2188 11.543C65.362 11.9336 65.5378 12.2852 65.7461 12.5977C65.9674 12.8971 66.2148 13.1445 66.4883 13.3398C66.7617 13.5221 67.0742 13.6068 67.4258 13.5938C67.8164 13.5677 68.2005 13.4505 68.5781 13.2422C68.9036 13.0729 69.2357 12.8125 69.5742 12.4609C69.9128 12.0964 70.2057 11.582 70.4531 10.918L73.3438 11.4453C72.5104 12.4609 71.6966 13.2227 70.9023 13.7305C70.1211 14.2383 69.418 14.5964 68.793 14.8047C68.0638 15.0391 67.3737 15.1497 66.7227 15.1367C65.9023 15.0456 65.1341 14.7982 64.418 14.3945C63.7018 13.9909 63.0833 13.5026 62.5625 12.9297C62.0547 12.3438 61.6576 11.7057 61.3711 11.0156C61.0846 10.3255 60.9609 9.64844 61 8.98438C61.026 8.54167 61.1172 8.02734 61.2734 7.44141C61.4297 6.84245 61.638 6.23047 61.8984 5.60547C62.1719 4.98047 62.4974 4.36849 62.875 3.76953C63.2526 3.17057 63.6693 2.63672 64.125 2.16797C64.5807 1.6862 65.0755 1.30208 65.6094 1.01562C66.1562 0.716146 66.7227 0.566406 67.3086 0.566406ZM73.3438 5.64453C73.5911 5.65755 73.8125 5.66406 74.0078 5.66406C74.2161 5.65104 74.3919 5.63802 74.5352 5.625C74.7044 5.61198 74.8542 5.59896 74.9844 5.58594C75.1797 5.5599 75.3815 5.52734 75.5898 5.48828C75.7721 5.46224 75.9609 5.42969 76.1562 5.39062C76.3646 5.33854 76.5664 5.27995 76.7617 5.21484C76.6836 5.41016 76.6185 5.57943 76.5664 5.72266C76.5143 5.86589 76.4753 5.98958 76.4492 6.09375C76.4102 6.21094 76.3906 6.30859 76.3906 6.38672C76.3776 6.47786 76.3711 6.58854 76.3711 6.71875C76.3581 6.9401 76.3581 7.29818 76.3711 7.79297C77.0482 7.20703 77.6146 6.7513 78.0703 6.42578C78.5391 6.10026 78.9102 5.84635 79.1836 5.66406C79.5091 5.45573 79.763 5.31901 79.9453 5.25391C80.4271 5.17578 80.8503 5.28646 81.2148 5.58594C81.3711 5.71615 81.5208 5.89193 81.6641 6.11328C81.8073 6.32161 81.931 6.60156 82.0352 6.95312C82.1393 7.30469 82.2174 7.72786 82.2695 8.22266C82.3216 8.70443 82.3281 9.28385 82.2891 9.96094C82.0156 9.98698 81.7682 10.013 81.5469 10.0391C81.3385 10.0651 81.1628 10.0846 81.0195 10.0977C80.8503 10.1237 80.694 10.1367 80.5508 10.1367L80.0234 10.1953C79.8411 10.2214 79.6133 10.2474 79.3398 10.2734C79.0794 10.2865 78.7604 10.3125 78.3828 10.3516C78.9297 9.90885 79.2812 9.52474 79.4375 9.19922C79.6068 8.86068 79.6784 8.58073 79.6523 8.35938C79.6263 8.11198 79.5091 7.89714 79.3008 7.71484C79.0534 7.57161 78.7865 7.51953 78.5 7.55859C78.2526 7.58464 77.9661 7.69531 77.6406 7.89062C77.3151 8.08594 76.9701 8.45052 76.6055 8.98438C76.6315 9.81771 76.6576 10.5078 76.6836 11.0547C76.7227 11.6016 76.7552 12.0443 76.7812 12.3828C76.8203 12.7734 76.8529 13.0794 76.8789 13.3008C76.918 13.4961 76.9961 13.7044 77.1133 13.9258C77.2044 14.1081 77.3346 14.3099 77.5039 14.5312C77.6732 14.7526 77.8945 14.974 78.168 15.1953C77.5951 15.1693 77.1263 15.1693 76.7617 15.1953C76.5404 15.2083 76.3451 15.2214 76.1758 15.2344C75.9935 15.2604 75.7982 15.2865 75.5898 15.3125C75.4076 15.3385 75.1927 15.3646 74.9453 15.3906C74.7109 15.4297 74.4505 15.4688 74.1641 15.5078C74.2682 15.3646 74.3529 15.1953 74.418 15C74.4831 14.8177 74.5352 14.6419 74.5742 14.4727C74.6263 14.2773 74.6654 14.0755 74.6914 13.8672C74.7044 13.6849 74.7109 13.4115 74.7109 13.0469C74.724 12.6823 74.7174 12.2721 74.6914 11.8164C74.6784 11.3477 74.6589 10.8659 74.6328 10.3711C74.6068 9.86328 74.5742 9.38802 74.5352 8.94531C74.4961 8.5026 74.4505 8.11849 74.3984 7.79297C74.3594 7.45443 74.3138 7.22005 74.2617 7.08984C74.1966 6.93359 74.1185 6.77734 74.0273 6.62109C73.9492 6.47786 73.8516 6.32812 73.7344 6.17188C73.6172 6.0026 73.487 5.82682 73.3438 5.64453ZM83.207 6.01562C83.5456 6.08073 83.8385 6.13281 84.0859 6.17188C84.3464 6.19792 84.5677 6.22396 84.75 6.25C84.9583 6.27604 85.1406 6.29557 85.2969 6.30859C85.4531 6.32161 85.6354 6.33464 85.8438 6.34766C86.1953 6.36068 86.6901 6.36068 87.3281 6.34766C86.9505 6.32161 86.651 6.41927 86.4297 6.64062C86.2214 6.84896 86.0651 7.08984 85.9609 7.36328C85.8307 7.6888 85.7591 8.06641 85.7461 8.49609C85.7201 9.06901 85.7331 9.58984 85.7852 10.0586C85.8503 10.5143 85.9609 10.9049 86.1172 11.2305C86.2865 11.543 86.5078 11.7773 86.7812 11.9336C87.0547 12.0768 87.4062 12.1159 87.8359 12.0508C88.2656 11.9857 88.5911 11.8359 88.8125 11.6016C89.0469 11.3542 89.2161 11.0547 89.3203 10.7031C89.4245 10.3385 89.4831 9.92839 89.4961 9.47266C89.5221 9.01693 89.5417 8.54167 89.5547 8.04688C89.5547 7.55208 89.5482 7.20052 89.5352 6.99219C89.5352 6.77083 89.5286 6.6276 89.5156 6.5625C89.5026 6.4974 89.4831 6.47135 89.457 6.48438C89.431 6.48438 89.3984 6.45182 89.3594 6.38672C89.3333 6.33464 89.2943 6.28255 89.2422 6.23047C89.2031 6.17839 89.151 6.11979 89.0859 6.05469C89.0208 5.97656 88.9492 5.89844 88.8711 5.82031C89.2096 5.83333 89.5091 5.84635 89.7695 5.85938C90.043 5.85938 90.2708 5.86589 90.4531 5.87891C90.6615 5.89193 90.8438 5.90495 91 5.91797C91.1432 5.93099 91.332 5.95052 91.5664 5.97656C91.7617 6.0026 92.0156 6.02865 92.3281 6.05469C92.6406 6.08073 93.0117 6.11979 93.4414 6.17188C93.1419 6.23698 92.901 6.33464 92.7188 6.46484C92.5365 6.59505 92.3932 6.72526 92.2891 6.85547C92.1719 6.9987 92.0872 7.15495 92.0352 7.32422C91.9961 7.54557 91.9961 7.88411 92.0352 8.33984C92.0612 8.74349 92.1263 9.29688 92.2305 10C92.3346 10.7031 92.4974 11.6276 92.7188 12.7734L91.1758 13.6914L90.8633 11.0938C90.4857 11.7318 90.082 12.2266 89.6523 12.5781C89.2357 12.9167 88.8451 13.1641 88.4805 13.3203C88.0508 13.5026 87.6341 13.6068 87.2305 13.6328C86.6966 13.6328 86.2344 13.6003 85.8438 13.5352C85.4661 13.457 85.1406 13.3594 84.8672 13.2422C84.5938 13.125 84.3724 12.9948 84.2031 12.8516C84.0469 12.6953 83.9297 12.5391 83.8516 12.3828C83.6693 12.0573 83.5716 11.6406 83.5586 11.1328C83.5456 10.612 83.5651 10.0977 83.6172 9.58984C83.6693 9.06901 83.7279 8.59375 83.793 8.16406C83.8581 7.73438 83.8776 7.44141 83.8516 7.28516C83.8255 7.16797 83.7865 7.03776 83.7344 6.89453C83.6823 6.77734 83.6172 6.64714 83.5391 6.50391C83.4609 6.34766 83.3503 6.1849 83.207 6.01562ZM102.348 3.84766C102.23 4.13411 102.126 4.39453 102.035 4.62891C101.957 4.86328 101.885 5.07161 101.82 5.25391C101.755 5.46224 101.697 5.64453 101.645 5.80078C101.592 5.98307 101.534 6.19141 101.469 6.42578C101.404 6.63411 101.319 6.89453 101.215 7.20703C101.124 7.50651 101.013 7.86458 100.883 8.28125C100.779 7.65625 100.59 7.16146 100.316 6.79688C100.043 6.41927 99.763 6.1263 99.4766 5.91797C99.138 5.68359 98.7734 5.51432 98.3828 5.41016C97.6797 5.29297 97.1719 5.30599 96.8594 5.44922C96.5469 5.59245 96.3385 5.77474 96.2344 5.99609C96.1823 6.08724 96.1237 6.20443 96.0586 6.34766C96.0065 6.47786 95.9609 6.61458 95.9219 6.75781C95.8958 6.90104 95.8893 7.04427 95.9023 7.1875C95.9154 7.33073 95.974 7.44792 96.0781 7.53906C96.1432 7.60417 96.3125 7.69531 96.5859 7.8125C96.8594 7.91667 97.1849 8.04036 97.5625 8.18359C97.9531 8.3138 98.3633 8.45703 98.793 8.61328C99.2357 8.76953 99.6523 8.92578 100.043 9.08203C100.434 9.23828 100.772 9.39453 101.059 9.55078C101.345 9.70703 101.534 9.85026 101.625 9.98047C101.703 10.1107 101.788 10.2865 101.879 10.5078C101.983 10.7161 102.055 10.9505 102.094 11.2109C102.146 11.4583 102.159 11.7188 102.133 11.9922C102.12 12.2526 102.048 12.513 101.918 12.7734C101.788 13.0339 101.579 13.2747 101.293 13.4961C101.02 13.7174 100.648 13.8997 100.18 14.043C99.6328 14.2122 99.1055 14.2578 98.5977 14.1797C98.0898 14.1016 97.6211 13.9844 97.1914 13.8281C96.7747 13.6719 96.4102 13.5221 96.0977 13.3789C95.7852 13.2227 95.5638 13.1576 95.4336 13.1836C95.2904 13.2096 95.1276 13.2812 94.9453 13.3984C94.763 13.5156 94.5872 13.6393 94.418 13.7695C94.2617 13.8867 94.125 13.9974 94.0078 14.1016C93.8906 14.1927 93.832 14.2253 93.832 14.1992C93.832 14.1732 93.8516 14.0951 93.8906 13.9648C93.9427 13.8346 93.9948 13.6784 94.0469 13.4961C94.112 13.3008 94.1706 13.0924 94.2227 12.8711C94.2878 12.6367 94.3333 12.4154 94.3594 12.207C94.3854 12.0378 94.418 11.8294 94.457 11.582C94.4831 11.3607 94.5156 11.0938 94.5547 10.7812C94.6068 10.4557 94.6654 10.0651 94.7305 9.60938C94.7956 9.94792 94.8867 10.2409 95.0039 10.4883C95.1341 10.7357 95.2578 10.9505 95.375 11.1328C95.5182 11.3411 95.6549 11.5169 95.7852 11.6602C95.9805 11.8424 96.2083 12.0117 96.4688 12.168C96.7422 12.3242 97.0156 12.4609 97.2891 12.5781C97.5625 12.6823 97.8229 12.7474 98.0703 12.7734C98.3177 12.7995 98.526 12.7734 98.6953 12.6953C98.8646 12.6172 99.0078 12.474 99.125 12.2656C99.2552 12.0573 99.3464 11.8294 99.3984 11.582C99.4505 11.3346 99.4701 11.1003 99.457 10.8789C99.444 10.6445 99.3854 10.4557 99.2812 10.3125C99.2031 10.2214 99.0208 10.1042 98.7344 9.96094C98.4609 9.81771 98.1289 9.66146 97.7383 9.49219C97.3607 9.32292 96.957 9.14714 96.5273 8.96484C96.1107 8.78255 95.7135 8.60026 95.3359 8.41797C94.9714 8.22266 94.6654 8.04036 94.418 7.87109C94.1836 7.6888 94.0534 7.52604 94.0273 7.38281C94.0013 7.17448 93.9818 6.94661 93.9688 6.69922C93.9557 6.4388 93.9688 6.1849 94.0078 5.9375C94.0599 5.67708 94.151 5.42969 94.2812 5.19531C94.4245 4.96094 94.6328 4.76562 94.9062 4.60938C95.0885 4.50521 95.3294 4.42708 95.6289 4.375C95.9284 4.32292 96.2604 4.29688 96.625 4.29688C96.9896 4.28385 97.3672 4.29688 97.7578 4.33594C98.1484 4.36198 98.5195 4.40104 98.8711 4.45312C99.2357 4.49219 99.5612 4.54427 99.8477 4.60938C100.147 4.67448 100.375 4.73307 100.531 4.78516C100.714 4.85026 100.909 4.85677 101.117 4.80469C101.299 4.76562 101.495 4.68099 101.703 4.55078C101.911 4.42057 102.126 4.1862 102.348 3.84766ZM102.953 0.195312C103.253 0.247396 103.526 0.286458 103.773 0.3125C104.021 0.325521 104.229 0.338542 104.398 0.351562C104.594 0.364583 104.763 0.371094 104.906 0.371094C105.102 0.358073 105.329 0.338542 105.59 0.3125C105.811 0.286458 106.078 0.253906 106.391 0.214844C106.716 0.175781 107.087 0.123698 107.504 0.0585938C107.309 0.16276 107.146 0.266927 107.016 0.371094C106.885 0.46224 106.781 0.559896 106.703 0.664062C106.612 0.78125 106.54 0.891927 106.488 0.996094C106.423 1.16536 106.352 1.51693 106.273 2.05078C106.195 2.50651 106.098 3.18359 105.98 4.08203C105.876 4.98047 105.74 6.19792 105.57 7.73438C106.039 7.26562 106.482 6.91406 106.898 6.67969C107.328 6.43229 107.706 6.25651 108.031 6.15234C108.409 6.03516 108.76 5.97656 109.086 5.97656C109.49 6.01562 109.9 6.14583 110.316 6.36719C110.746 6.57552 111.143 6.82292 111.508 7.10938C111.885 7.39583 112.211 7.70182 112.484 8.02734C112.771 8.35286 112.973 8.63932 113.09 8.88672C113.168 9.05599 113.207 9.27734 113.207 9.55078C113.207 9.8112 113.181 10.0977 113.129 10.4102C113.077 10.7227 113.005 11.0417 112.914 11.3672C112.823 11.6927 112.732 11.9987 112.641 12.2852C112.562 12.5716 112.491 12.8255 112.426 13.0469C112.361 13.2552 112.322 13.4049 112.309 13.4961C112.283 13.6914 112.296 13.8802 112.348 14.0625C112.387 14.2188 112.465 14.388 112.582 14.5703C112.699 14.7396 112.875 14.8828 113.109 15C112.927 14.974 112.732 14.9544 112.523 14.9414C112.328 14.9154 112.139 14.8958 111.957 14.8828C111.749 14.8698 111.54 14.8633 111.332 14.8633H110.629C110.408 14.8633 110.154 14.8698 109.867 14.8828C109.581 14.8828 109.268 14.8893 108.93 14.9023C109.112 14.8372 109.268 14.7526 109.398 14.6484C109.529 14.5312 109.639 14.4206 109.73 14.3164C109.835 14.1992 109.926 14.0755 110.004 13.9453C110.056 13.8411 110.121 13.6458 110.199 13.3594C110.277 13.0599 110.349 12.7214 110.414 12.3438C110.479 11.9531 110.525 11.543 110.551 11.1133C110.59 10.6836 110.596 10.2734 110.57 9.88281C110.557 9.47917 110.499 9.12109 110.395 8.80859C110.303 8.49609 110.16 8.26823 109.965 8.125C109.379 7.68229 108.845 7.46745 108.363 7.48047C107.895 7.48047 107.445 7.66927 107.016 8.04688C106.859 8.1901 106.71 8.33333 106.566 8.47656C106.436 8.60677 106.293 8.76302 106.137 8.94531C105.98 9.11458 105.837 9.29036 105.707 9.47266C105.707 9.66797 105.714 9.88281 105.727 10.1172C105.74 10.3516 105.753 10.5794 105.766 10.8008C105.779 11.0482 105.798 11.2956 105.824 11.543C105.85 11.9206 105.889 12.2917 105.941 12.6562C105.98 12.9688 106.033 13.3138 106.098 13.6914C106.163 14.056 106.247 14.388 106.352 14.6875C106.182 14.6615 106.007 14.6549 105.824 14.668C105.642 14.668 105.466 14.668 105.297 14.668C105.102 14.681 104.913 14.6875 104.73 14.6875C104.561 14.7005 104.385 14.7201 104.203 14.7461C104.047 14.7721 103.878 14.7982 103.695 14.8242C103.513 14.8372 103.337 14.8633 103.168 14.9023C103.324 14.6029 103.454 14.3099 103.559 14.0234C103.663 13.724 103.747 13.4635 103.812 13.2422C103.891 12.9818 103.956 12.7279 104.008 12.4805C104.047 12.2852 104.073 11.9141 104.086 11.3672C104.112 10.8073 104.132 10.1693 104.145 9.45312C104.158 8.72396 104.164 7.95573 104.164 7.14844C104.164 6.34115 104.158 5.57292 104.145 4.84375C104.132 4.11458 104.105 3.47656 104.066 2.92969C104.04 2.38281 104.008 2.00521 103.969 1.79688C103.917 1.58854 103.845 1.38021 103.754 1.17188C103.676 0.989583 103.572 0.813802 103.441 0.644531C103.311 0.46224 103.148 0.3125 102.953 0.195312Z" fill="white"/>
</svg>
